<svg xmlns="http://www.w3.org/2000/svg" viewBox="0 0 133.07 133.07"><defs><style>.cls-1{font-size:28.73px;letter-spacing:0.2em;}.cls-1,.cls-10,.cls-3{fill:#1d1d1b;}.cls-1,.cls-10{font-family:BebasNeueBold, Bebas Neue;}.cls-2{letter-spacing:0.2em;}.cls-3{font-size:13.8px;font-family:Arvo;letter-spacing:0.15em;}.cls-13,.cls-4,.cls-6,.cls-7,.cls-8,.cls-9{fill:none;stroke-linecap:round;stroke-linejoin:round;}.cls-13,.cls-4,.cls-6,.cls-7{stroke:#1d1d1b;}.cls-4{stroke-width:0.92px;}.cls-5{fill:#0d2314;}.cls-6{stroke-width:0.45px;}.cls-7{stroke-width:1.07px;}.cls-8{stroke:#0d2314;stroke-width:0.18px;}.cls-9{stroke:#040406;}.cls-13,.cls-9{stroke-width:1.07px;}.cls-10{font-size:6.81px;letter-spacing:0.2em;}.cls-11{letter-spacing:0.19em;}.cls-12{letter-spacing:0.2em;}</style></defs><g id="Layer_2" data-name="Layer 2"><g id="Layer_1-2" data-name="Layer 1"><text class="cls-1" transform="translate(17.78 85.04) scale(1.02 1)">ALE<tspan class="cls-2" x="49.25" y="0">K</tspan><tspan x="66.75" y="0">SA</tspan></text><text class="cls-3" transform="translate(24.12 57.51) scale(1.02 1)">·PEKARA·</text><line class="cls-4" x1="9.76" y1="89.69" x2="123.31" y2="89.69"/><line class="cls-4" x1="9.76" y1="60.13" x2="123.31" y2="60.13"/><path class="cls-5" d="M101.15,98.4a10.47,10.47,0,0,0-3.46,2.89,10.73,10.73,0,0,0,4.41-1.05,10.44,10.44,0,0,0,3.47-2.89A10.79,10.79,0,0,0,101.15,98.4Z"/><path class="cls-5" d="M30,100.24a10.6,10.6,0,0,0,4.42,1.05,9.9,9.9,0,0,0-7.88-3.93"/><polyline class="cls-6" points="128.16 96.83 66.53 127.12 4.91 96.83"/><line class="cls-7" x1="66.53" y1="132.53" x2="0.53" y2="99.53"/><line class="cls-7" x1="132.53" y1="99.53" x2="66.53" y2="132.53"/><line class="cls-8" x1="71.07" y1="114.6" x2="110.21" y2="95.03"/><line class="cls-8" x1="77.27" y1="107.72" x2="106.67" y2="93.02"/><line class="cls-8" x1="80.39" y1="113.72" x2="109.79" y2="99.02"/><path class="cls-5" d="M77.68,112.41a11.54,11.54,0,0,0-4.42,1.1A3.31,3.31,0,0,0,76,114.88a11.42,11.42,0,0,0,4.42-1.09A3.33,3.33,0,0,0,77.68,112.41Z"/><path class="cls-5" d="M82.81,109.85a11.42,11.42,0,0,0-4.42,1.09,3.33,3.33,0,0,0,2.74,1.38,11.49,11.49,0,0,0,4.43-1.09A3.34,3.34,0,0,0,82.81,109.85Z"/><path class="cls-5" d="M87.94,107.28a11.42,11.42,0,0,0-4.42,1.09,3.34,3.34,0,0,0,2.75,1.38,11.42,11.42,0,0,0,4.42-1.09A3.34,3.34,0,0,0,87.94,107.28Z"/><path class="cls-5" d="M93.07,104.72a11.42,11.42,0,0,0-4.42,1.09,3.34,3.34,0,0,0,2.75,1.37,11.42,11.42,0,0,0,4.42-1.09A3.34,3.34,0,0,0,93.07,104.72Z"/><path class="cls-5" d="M98.21,102.15a11.42,11.42,0,0,0-4.42,1.09,3.31,3.31,0,0,0,2.74,1.38,11.42,11.42,0,0,0,4.42-1.09A3.33,3.33,0,0,0,98.21,102.15Z"/><path class="cls-5" d="M76.75,110.64a11.29,11.29,0,0,1-3.49,2.87,3.21,3.21,0,0,1,.47-3,11.24,11.24,0,0,1,3.5-2.87A3.2,3.2,0,0,1,76.75,110.64Z"/><path class="cls-5" d="M81.89,108.07a11.24,11.24,0,0,1-3.5,2.87,3.2,3.2,0,0,1,.48-3,11.13,11.13,0,0,1,3.49-2.87A3.21,3.21,0,0,1,81.89,108.07Z"/><path class="cls-5" d="M87,105.5a11.24,11.24,0,0,1-3.5,2.87,3.2,3.2,0,0,1,.48-3,11.41,11.41,0,0,1,3.49-2.87A3.21,3.21,0,0,1,87,105.5Z"/><path class="cls-5" d="M92.15,102.94a11.24,11.24,0,0,1-3.5,2.87,3.2,3.2,0,0,1,.48-3,11.24,11.24,0,0,1,3.5-2.87A3.2,3.2,0,0,1,92.15,102.94Z"/><path class="cls-5" d="M97.28,100.37a11.13,11.13,0,0,1-3.49,2.87,3.21,3.21,0,0,1,.47-3,11.24,11.24,0,0,1,3.5-2.87A3.2,3.2,0,0,1,97.28,100.37Z"/><line class="cls-8" x1="61.01" y1="114.61" x2="21.86" y2="95.03"/><line class="cls-8" x1="51.69" y1="113.72" x2="22.29" y2="99.02"/><line class="cls-8" x1="54.81" y1="107.72" x2="25.41" y2="93.02"/><path class="cls-5" d="M55.32,110.64a11.24,11.24,0,0,0,3.5,2.87,3.2,3.2,0,0,0-.48-3,11.13,11.13,0,0,0-3.49-2.87A3.21,3.21,0,0,0,55.32,110.64Z"/><path class="cls-5" d="M50.19,108.08a11.3,11.3,0,0,0,3.5,2.86,3.18,3.18,0,0,0-.48-3,11.24,11.24,0,0,0-3.49-2.87A3.18,3.18,0,0,0,50.19,108.08Z"/><path class="cls-5" d="M45.06,105.51a11.24,11.24,0,0,0,3.5,2.87,3.2,3.2,0,0,0-.48-3,11.24,11.24,0,0,0-3.5-2.87A3.2,3.2,0,0,0,45.06,105.51Z"/><path class="cls-5" d="M39.93,102.94a11.13,11.13,0,0,0,3.49,2.87,3.21,3.21,0,0,0-.47-3,11.4,11.4,0,0,0-3.5-2.87A3.2,3.2,0,0,0,39.93,102.94Z"/><path class="cls-5" d="M34.79,100.38a11.24,11.24,0,0,0,3.5,2.87,3.2,3.2,0,0,0-.48-3,11.13,11.13,0,0,0-3.49-2.87A3.21,3.21,0,0,0,34.79,100.38Z"/><path class="cls-5" d="M54.4,112.42a11.42,11.42,0,0,1,4.42,1.09,3.34,3.34,0,0,1-2.75,1.38,11.42,11.42,0,0,1-4.42-1.09A3.34,3.34,0,0,1,54.4,112.42Z"/><path class="cls-5" d="M49.27,109.85a11.42,11.42,0,0,1,4.42,1.09,3.34,3.34,0,0,1-2.75,1.38,11.42,11.42,0,0,1-4.42-1.09A3.34,3.34,0,0,1,49.27,109.85Z"/><path class="cls-5" d="M44.13,107.29a11.42,11.42,0,0,1,4.42,1.09,3.29,3.29,0,0,1-2.74,1.37,11.42,11.42,0,0,1-4.42-1.09A3.31,3.31,0,0,1,44.13,107.29Z"/><path class="cls-5" d="M39,104.72a11.42,11.42,0,0,1,4.42,1.09,3.33,3.33,0,0,1-2.74,1.38,11.49,11.49,0,0,1-4.43-1.09A3.34,3.34,0,0,1,39,104.72Z"/><path class="cls-5" d="M33.87,102.15a11.61,11.61,0,0,1,4.42,1.09,3.34,3.34,0,0,1-2.75,1.38,11.42,11.42,0,0,1-4.42-1.09A3.34,3.34,0,0,1,33.87,102.15Z"/><path class="cls-9" d="M83.2,34.15a39.71,39.71,0,0,0-7.91-3.4,24,24,0,0,1-1.64,6.11,24.92,24.92,0,0,1-1.74-6.94A31.18,31.18,0,0,0,68,29.43a24.67,24.67,0,0,1-1.79,7.43,24.93,24.93,0,0,1-1.78-7.38,31.19,31.19,0,0,0-4,.58,24.51,24.51,0,0,1-1.73,6.8A24.12,24.12,0,0,1,57.1,31a39.36,39.36,0,0,0-7.23,3.19,2.71,2.71,0,0,0,0,4.92,34.94,34.94,0,0,0,16.66,4.75A34.94,34.94,0,0,0,83.2,39.07,2.71,2.71,0,0,0,83.2,34.15Z"/><path class="cls-9" d="M60.44,30.06c-1.16.25-2.28.56-3.34.9a24.12,24.12,0,0,0,1.61,5.9A24.51,24.51,0,0,0,60.44,30.06Z"/><path class="cls-9" d="M68,29.43c-.48,0-1,0-1.44,0-.72,0-1.43,0-2.13.09a24.93,24.93,0,0,0,1.78,7.38A24.67,24.67,0,0,0,68,29.43Z"/><path class="cls-9" d="M75.29,30.75a34.07,34.07,0,0,0-3.38-.83,24.92,24.92,0,0,0,1.74,6.94A24,24,0,0,0,75.29,30.75Z"/><path class="cls-9" d="M79.52,37.58a27.22,27.22,0,0,1-13,3.7,27.21,27.21,0,0,1-13-3.7"/><line class="cls-6" x1="66.53" y1="5.95" x2="128.16" y2="36.24"/><line class="cls-6" x1="4.91" y1="36.24" x2="66.53" y2="5.95"/><line class="cls-7" x1="66.53" y1="0.53" x2="132.53" y2="33.53"/><line class="cls-7" x1="0.53" y1="33.53" x2="66.53" y2="0.53"/><text class="cls-10" transform="translate(22.46 40.79) scale(1.02 1)">EST<tspan class="cls-11" x="11.57" y="0">D</tspan><tspan class="cls-12" x="15.65" y="0">.</tspan></text><text class="cls-10" transform="translate(91.13 40.79) scale(1.02 1)">1998</text><path class="cls-13" d="M64.9,25.06c0-2.09,2.56-2.09,2.56-4.18S64.9,18.79,64.9,16.7s2.56-2.1,2.56-4.19"/><path class="cls-13" d="M58.62,27.49c0-2.1,2.56-2.1,2.56-4.19s-2.56-2.09-2.56-4.18,2.56-2.09,2.56-4.18"/><path class="cls-13" d="M71.36,27.49c0-2.1,2.56-2.1,2.56-4.19s-2.56-2.09-2.56-4.18,2.56-2.09,2.56-4.18"/></g></g></svg>